<mxfile host="app.diagrams.net" modified="2023-08-06T22:24:12.868Z" agent="Mozilla/5.0 (Windows NT 10.0; Win64; x64) AppleWebKit/537.36 (KHTML, like Gecko) Chrome/115.0.0.0 Safari/537.36 Edg/115.0.1901.188" etag="6LJ2KRrDc-MKtcfAWkyu" version="21.6.6" type="google">
  <diagram id="C5RBs43oDa-KdzZeNtuy" name="Page-1">
    <mxGraphModel dx="1619" dy="796" grid="1" gridSize="10" guides="1" tooltips="1" connect="1" arrows="1" fold="1" page="1" pageScale="1" pageWidth="827" pageHeight="1169" math="0" shadow="0">
      <root>
        <mxCell id="WIyWlLk6GJQsqaUBKTNV-0" />
        <mxCell id="WIyWlLk6GJQsqaUBKTNV-1" parent="WIyWlLk6GJQsqaUBKTNV-0" />
        <mxCell id="4jvXviJGPuVNs1rjWrJ6-38" value="" style="group" parent="WIyWlLk6GJQsqaUBKTNV-1" vertex="1" connectable="0">
          <mxGeometry x="160" y="280" width="800" height="1020" as="geometry" />
        </mxCell>
        <mxCell id="4jvXviJGPuVNs1rjWrJ6-0" value="початок" style="ellipse;whiteSpace=wrap;html=1;" parent="4jvXviJGPuVNs1rjWrJ6-38" vertex="1">
          <mxGeometry x="204.6511627906977" width="111.62790697674419" height="65.28" as="geometry" />
        </mxCell>
        <mxCell id="4jvXviJGPuVNs1rjWrJ6-1" value="якого улюбленця має користувач" style="shape=parallelogram;perimeter=parallelogramPerimeter;whiteSpace=wrap;html=1;fixedSize=1;" parent="4jvXviJGPuVNs1rjWrJ6-38" vertex="1">
          <mxGeometry x="186.046511627907" y="97.92" width="148.8372093023256" height="65.28" as="geometry" />
        </mxCell>
        <mxCell id="4jvXviJGPuVNs1rjWrJ6-24" style="edgeStyle=orthogonalEdgeStyle;rounded=0;orthogonalLoop=1;jettySize=auto;html=1;exitX=0.5;exitY=1;exitDx=0;exitDy=0;entryX=0.5;entryY=0;entryDx=0;entryDy=0;" parent="4jvXviJGPuVNs1rjWrJ6-38" source="4jvXviJGPuVNs1rjWrJ6-0" target="4jvXviJGPuVNs1rjWrJ6-1" edge="1">
          <mxGeometry relative="1" as="geometry" />
        </mxCell>
        <mxCell id="4jvXviJGPuVNs1rjWrJ6-4" style="edgeStyle=orthogonalEdgeStyle;rounded=0;orthogonalLoop=1;jettySize=auto;html=1;exitX=1;exitY=0.5;exitDx=0;exitDy=0;entryX=0.5;entryY=0;entryDx=0;entryDy=0;" parent="4jvXviJGPuVNs1rjWrJ6-38" source="4jvXviJGPuVNs1rjWrJ6-2" edge="1">
          <mxGeometry relative="1" as="geometry">
            <mxPoint x="353.48837209302326" y="269.28" as="targetPoint" />
          </mxGeometry>
        </mxCell>
        <mxCell id="4jvXviJGPuVNs1rjWrJ6-2" value="кіт?" style="rhombus;whiteSpace=wrap;html=1;" parent="4jvXviJGPuVNs1rjWrJ6-38" vertex="1">
          <mxGeometry x="223.25581395348837" y="195.84" width="74.4186046511628" height="65.28" as="geometry" />
        </mxCell>
        <mxCell id="4jvXviJGPuVNs1rjWrJ6-21" style="edgeStyle=orthogonalEdgeStyle;rounded=0;orthogonalLoop=1;jettySize=auto;html=1;exitX=0.5;exitY=1;exitDx=0;exitDy=0;" parent="4jvXviJGPuVNs1rjWrJ6-38" source="4jvXviJGPuVNs1rjWrJ6-1" target="4jvXviJGPuVNs1rjWrJ6-2" edge="1">
          <mxGeometry relative="1" as="geometry" />
        </mxCell>
        <mxCell id="4jvXviJGPuVNs1rjWrJ6-5" value="короткошерста чи довгошерста?" style="shape=parallelogram;perimeter=parallelogramPerimeter;whiteSpace=wrap;html=1;fixedSize=1;" parent="4jvXviJGPuVNs1rjWrJ6-38" vertex="1">
          <mxGeometry x="297.6744186046512" y="269.28" width="130.2325581395349" height="48.96" as="geometry" />
        </mxCell>
        <mxCell id="4jvXviJGPuVNs1rjWrJ6-6" value="довгошерста?" style="rhombus;whiteSpace=wrap;html=1;" parent="4jvXviJGPuVNs1rjWrJ6-38" vertex="1">
          <mxGeometry x="313.953488372093" y="367.2" width="97.67441860465117" height="65.28" as="geometry" />
        </mxCell>
        <mxCell id="4jvXviJGPuVNs1rjWrJ6-7" style="edgeStyle=orthogonalEdgeStyle;rounded=0;orthogonalLoop=1;jettySize=auto;html=1;exitX=0.5;exitY=1;exitDx=0;exitDy=0;" parent="4jvXviJGPuVNs1rjWrJ6-38" source="4jvXviJGPuVNs1rjWrJ6-5" target="4jvXviJGPuVNs1rjWrJ6-6" edge="1">
          <mxGeometry relative="1" as="geometry" />
        </mxCell>
        <mxCell id="4jvXviJGPuVNs1rjWrJ6-9" value="«ви бажаєте отримати контакти&lt;br/&gt;найближчого грумера?" style="shape=parallelogram;perimeter=parallelogramPerimeter;whiteSpace=wrap;html=1;fixedSize=1;" parent="4jvXviJGPuVNs1rjWrJ6-38" vertex="1">
          <mxGeometry x="402.3255813953488" y="440.64000000000004" width="153.48837209302326" height="57.120000000000005" as="geometry" />
        </mxCell>
        <mxCell id="4jvXviJGPuVNs1rjWrJ6-15" style="edgeStyle=orthogonalEdgeStyle;rounded=0;orthogonalLoop=1;jettySize=auto;html=1;exitX=1;exitY=0.5;exitDx=0;exitDy=0;entryX=0.562;entryY=-0.003;entryDx=0;entryDy=0;entryPerimeter=0;" parent="4jvXviJGPuVNs1rjWrJ6-38" source="4jvXviJGPuVNs1rjWrJ6-6" target="4jvXviJGPuVNs1rjWrJ6-9" edge="1">
          <mxGeometry relative="1" as="geometry" />
        </mxCell>
        <mxCell id="4jvXviJGPuVNs1rjWrJ6-10" value="так?" style="rhombus;whiteSpace=wrap;html=1;" parent="4jvXviJGPuVNs1rjWrJ6-38" vertex="1">
          <mxGeometry x="427.90697674418607" y="546.72" width="102.32558139534885" height="65.28" as="geometry" />
        </mxCell>
        <mxCell id="4jvXviJGPuVNs1rjWrJ6-8" style="edgeStyle=orthogonalEdgeStyle;rounded=0;orthogonalLoop=1;jettySize=auto;html=1;exitX=0.5;exitY=1;exitDx=0;exitDy=0;" parent="4jvXviJGPuVNs1rjWrJ6-38" source="4jvXviJGPuVNs1rjWrJ6-9" target="4jvXviJGPuVNs1rjWrJ6-10" edge="1">
          <mxGeometry relative="1" as="geometry" />
        </mxCell>
        <mxCell id="4jvXviJGPuVNs1rjWrJ6-11" value="Показати адресу найближчої котячої перукарні" style="shape=parallelogram;perimeter=parallelogramPerimeter;whiteSpace=wrap;html=1;fixedSize=1;" parent="4jvXviJGPuVNs1rjWrJ6-38" vertex="1">
          <mxGeometry x="567.4418604651163" y="636.48" width="232.5581395348837" height="81.6" as="geometry" />
        </mxCell>
        <mxCell id="4jvXviJGPuVNs1rjWrJ6-12" style="edgeStyle=orthogonalEdgeStyle;rounded=0;orthogonalLoop=1;jettySize=auto;html=1;exitX=1;exitY=0.5;exitDx=0;exitDy=0;entryX=0.575;entryY=0.017;entryDx=0;entryDy=0;entryPerimeter=0;" parent="4jvXviJGPuVNs1rjWrJ6-38" source="4jvXviJGPuVNs1rjWrJ6-10" target="4jvXviJGPuVNs1rjWrJ6-11" edge="1">
          <mxGeometry relative="1" as="geometry" />
        </mxCell>
        <mxCell id="4jvXviJGPuVNs1rjWrJ6-13" value="«Запропонуй магазин з товарами по догляду за шерстю" style="shape=parallelogram;perimeter=parallelogramPerimeter;whiteSpace=wrap;html=1;fixedSize=1;" parent="4jvXviJGPuVNs1rjWrJ6-38" vertex="1">
          <mxGeometry x="251.16279069767444" y="636.48" width="180.46511627906978" height="81.6" as="geometry" />
        </mxCell>
        <mxCell id="4jvXviJGPuVNs1rjWrJ6-14" style="edgeStyle=orthogonalEdgeStyle;rounded=0;orthogonalLoop=1;jettySize=auto;html=1;exitX=0;exitY=0.5;exitDx=0;exitDy=0;entryX=0.5;entryY=0;entryDx=0;entryDy=0;" parent="4jvXviJGPuVNs1rjWrJ6-38" source="4jvXviJGPuVNs1rjWrJ6-10" target="4jvXviJGPuVNs1rjWrJ6-13" edge="1">
          <mxGeometry relative="1" as="geometry" />
        </mxCell>
        <mxCell id="4jvXviJGPuVNs1rjWrJ6-18" value="«Запропонуй обрати магазин із зоотоварами" style="shape=parallelogram;perimeter=parallelogramPerimeter;whiteSpace=wrap;html=1;fixedSize=1;" parent="4jvXviJGPuVNs1rjWrJ6-38" vertex="1">
          <mxGeometry x="120.93023255813954" y="440.64000000000004" width="195.34883720930233" height="57.120000000000005" as="geometry" />
        </mxCell>
        <mxCell id="4jvXviJGPuVNs1rjWrJ6-19" style="edgeStyle=orthogonalEdgeStyle;rounded=0;orthogonalLoop=1;jettySize=auto;html=1;exitX=0;exitY=0.5;exitDx=0;exitDy=0;entryX=0.5;entryY=0;entryDx=0;entryDy=0;" parent="4jvXviJGPuVNs1rjWrJ6-38" source="4jvXviJGPuVNs1rjWrJ6-6" target="4jvXviJGPuVNs1rjWrJ6-18" edge="1">
          <mxGeometry relative="1" as="geometry" />
        </mxCell>
        <mxCell id="4jvXviJGPuVNs1rjWrJ6-22" value="Коли вирішите завести улюбленця – приходьте" style="shape=parallelogram;perimeter=parallelogramPerimeter;whiteSpace=wrap;html=1;fixedSize=1;" parent="4jvXviJGPuVNs1rjWrJ6-38" vertex="1">
          <mxGeometry y="269.28" width="176.74418604651163" height="57.120000000000005" as="geometry" />
        </mxCell>
        <mxCell id="4jvXviJGPuVNs1rjWrJ6-23" style="edgeStyle=orthogonalEdgeStyle;rounded=0;orthogonalLoop=1;jettySize=auto;html=1;exitX=0;exitY=0.5;exitDx=0;exitDy=0;" parent="4jvXviJGPuVNs1rjWrJ6-38" source="4jvXviJGPuVNs1rjWrJ6-2" target="4jvXviJGPuVNs1rjWrJ6-22" edge="1">
          <mxGeometry relative="1" as="geometry" />
        </mxCell>
        <mxCell id="4jvXviJGPuVNs1rjWrJ6-25" value="кінець" style="ellipse;whiteSpace=wrap;html=1;" parent="4jvXviJGPuVNs1rjWrJ6-38" vertex="1">
          <mxGeometry x="130.2325581395349" y="954.72" width="111.62790697674419" height="65.28" as="geometry" />
        </mxCell>
        <mxCell id="4jvXviJGPuVNs1rjWrJ6-26" value="" style="ellipse;whiteSpace=wrap;html=1;aspect=fixed;" parent="4jvXviJGPuVNs1rjWrJ6-38" vertex="1">
          <mxGeometry x="465.1162790697674" y="750.72" width="20.84720142501295" height="20.84720142501295" as="geometry" />
        </mxCell>
        <mxCell id="4jvXviJGPuVNs1rjWrJ6-28" style="edgeStyle=orthogonalEdgeStyle;rounded=0;orthogonalLoop=1;jettySize=auto;html=1;exitX=0.5;exitY=1;exitDx=0;exitDy=0;entryX=1;entryY=0.5;entryDx=0;entryDy=0;" parent="4jvXviJGPuVNs1rjWrJ6-38" source="4jvXviJGPuVNs1rjWrJ6-11" target="4jvXviJGPuVNs1rjWrJ6-26" edge="1">
          <mxGeometry relative="1" as="geometry" />
        </mxCell>
        <mxCell id="4jvXviJGPuVNs1rjWrJ6-27" style="edgeStyle=orthogonalEdgeStyle;rounded=0;orthogonalLoop=1;jettySize=auto;html=1;exitX=0.5;exitY=1;exitDx=0;exitDy=0;entryX=0;entryY=0.5;entryDx=0;entryDy=0;" parent="4jvXviJGPuVNs1rjWrJ6-38" source="4jvXviJGPuVNs1rjWrJ6-13" target="4jvXviJGPuVNs1rjWrJ6-26" edge="1">
          <mxGeometry relative="1" as="geometry" />
        </mxCell>
        <mxCell id="4jvXviJGPuVNs1rjWrJ6-30" value="" style="ellipse;whiteSpace=wrap;html=1;aspect=fixed;" parent="4jvXviJGPuVNs1rjWrJ6-38" vertex="1">
          <mxGeometry x="269.7674418604651" y="824.1600000000001" width="20.84720142501295" height="20.84720142501295" as="geometry" />
        </mxCell>
        <mxCell id="4jvXviJGPuVNs1rjWrJ6-31" style="edgeStyle=orthogonalEdgeStyle;rounded=0;orthogonalLoop=1;jettySize=auto;html=1;exitX=0.5;exitY=1;exitDx=0;exitDy=0;entryX=0;entryY=0.5;entryDx=0;entryDy=0;" parent="4jvXviJGPuVNs1rjWrJ6-38" source="4jvXviJGPuVNs1rjWrJ6-18" target="4jvXviJGPuVNs1rjWrJ6-30" edge="1">
          <mxGeometry relative="1" as="geometry" />
        </mxCell>
        <mxCell id="4jvXviJGPuVNs1rjWrJ6-32" style="edgeStyle=orthogonalEdgeStyle;rounded=0;orthogonalLoop=1;jettySize=auto;html=1;exitX=0.5;exitY=1;exitDx=0;exitDy=0;entryX=1;entryY=0.5;entryDx=0;entryDy=0;" parent="4jvXviJGPuVNs1rjWrJ6-38" source="4jvXviJGPuVNs1rjWrJ6-26" target="4jvXviJGPuVNs1rjWrJ6-30" edge="1">
          <mxGeometry relative="1" as="geometry" />
        </mxCell>
        <mxCell id="4jvXviJGPuVNs1rjWrJ6-37" style="edgeStyle=orthogonalEdgeStyle;rounded=0;orthogonalLoop=1;jettySize=auto;html=1;exitX=0.5;exitY=1;exitDx=0;exitDy=0;entryX=0.5;entryY=0;entryDx=0;entryDy=0;" parent="4jvXviJGPuVNs1rjWrJ6-38" source="4jvXviJGPuVNs1rjWrJ6-34" target="4jvXviJGPuVNs1rjWrJ6-25" edge="1">
          <mxGeometry relative="1" as="geometry" />
        </mxCell>
        <mxCell id="4jvXviJGPuVNs1rjWrJ6-34" value="" style="ellipse;whiteSpace=wrap;html=1;aspect=fixed;" parent="4jvXviJGPuVNs1rjWrJ6-38" vertex="1">
          <mxGeometry x="176.74418604651163" y="881.2800000000001" width="20.84720142501295" height="20.84720142501295" as="geometry" />
        </mxCell>
        <mxCell id="4jvXviJGPuVNs1rjWrJ6-35" style="edgeStyle=orthogonalEdgeStyle;rounded=0;orthogonalLoop=1;jettySize=auto;html=1;exitX=0.5;exitY=1;exitDx=0;exitDy=0;entryX=0;entryY=0.5;entryDx=0;entryDy=0;" parent="4jvXviJGPuVNs1rjWrJ6-38" source="4jvXviJGPuVNs1rjWrJ6-22" target="4jvXviJGPuVNs1rjWrJ6-34" edge="1">
          <mxGeometry relative="1" as="geometry" />
        </mxCell>
        <mxCell id="4jvXviJGPuVNs1rjWrJ6-36" style="edgeStyle=orthogonalEdgeStyle;rounded=0;orthogonalLoop=1;jettySize=auto;html=1;exitX=0.5;exitY=1;exitDx=0;exitDy=0;entryX=1;entryY=0.5;entryDx=0;entryDy=0;" parent="4jvXviJGPuVNs1rjWrJ6-38" source="4jvXviJGPuVNs1rjWrJ6-30" target="4jvXviJGPuVNs1rjWrJ6-34" edge="1">
          <mxGeometry relative="1" as="geometry" />
        </mxCell>
        <mxCell id="4jvXviJGPuVNs1rjWrJ6-39" value="true" style="text;html=1;strokeColor=none;fillColor=none;align=center;verticalAlign=middle;whiteSpace=wrap;rounded=0;" parent="4jvXviJGPuVNs1rjWrJ6-38" vertex="1">
          <mxGeometry x="288.88888888888886" y="195.83999999999997" width="66.66666666666667" height="30" as="geometry" />
        </mxCell>
        <mxCell id="4jvXviJGPuVNs1rjWrJ6-40" value="true" style="text;html=1;strokeColor=none;fillColor=none;align=center;verticalAlign=middle;whiteSpace=wrap;rounded=0;" parent="4jvXviJGPuVNs1rjWrJ6-38" vertex="1">
          <mxGeometry x="411.6333333333333" y="367.20000000000005" width="66.66666666666667" height="30" as="geometry" />
        </mxCell>
        <mxCell id="4jvXviJGPuVNs1rjWrJ6-111" value="true" style="text;html=1;strokeColor=none;fillColor=none;align=center;verticalAlign=middle;whiteSpace=wrap;rounded=0;" parent="4jvXviJGPuVNs1rjWrJ6-38" vertex="1">
          <mxGeometry x="567.4444444444445" y="546.72" width="66.66666666666667" height="30" as="geometry" />
        </mxCell>
        <mxCell id="4jvXviJGPuVNs1rjWrJ6-112" value="false" style="text;html=1;strokeColor=none;fillColor=none;align=center;verticalAlign=middle;whiteSpace=wrap;rounded=0;" parent="4jvXviJGPuVNs1rjWrJ6-38" vertex="1">
          <mxGeometry x="120.93333333333337" y="195.83999999999997" width="66.66666666666667" height="30" as="geometry" />
        </mxCell>
        <mxCell id="4jvXviJGPuVNs1rjWrJ6-113" value="false" style="text;html=1;strokeColor=none;fillColor=none;align=center;verticalAlign=middle;whiteSpace=wrap;rounded=0;" parent="4jvXviJGPuVNs1rjWrJ6-38" vertex="1">
          <mxGeometry x="231.01111111111118" y="367.20000000000005" width="66.66666666666667" height="30" as="geometry" />
        </mxCell>
        <mxCell id="4jvXviJGPuVNs1rjWrJ6-114" value="false" style="text;html=1;strokeColor=none;fillColor=none;align=center;verticalAlign=middle;whiteSpace=wrap;rounded=0;" parent="4jvXviJGPuVNs1rjWrJ6-38" vertex="1">
          <mxGeometry x="355.55555555555566" y="546.72" width="66.66666666666667" height="30" as="geometry" />
        </mxCell>
      </root>
    </mxGraphModel>
  </diagram>
</mxfile>
